<?xml version="1.0" encoding="UTF-8" standalone="no"?>
<!-- Created with Inkscape (http://www.inkscape.org/) -->

<svg
   xmlns:dc="http://purl.org/dc/elements/1.1/"
   xmlns:cc="http://creativecommons.org/ns#"
   xmlns:rdf="http://www.w3.org/1999/02/22-rdf-syntax-ns#"
   xmlns:svg="http://www.w3.org/2000/svg"
   xmlns="http://www.w3.org/2000/svg"
   xmlns:sodipodi="http://sodipodi.sourceforge.net/DTD/sodipodi-0.dtd"
   xmlns:inkscape="http://www.inkscape.org/namespaces/inkscape"
   width="3in"
   height="5in"
   viewBox="0 0 76.200001 127"
   version="1.1"
   id="svg8"
   inkscape:version="0.92.2 5c3e80d, 2017-08-06"
   sodipodi:docname="newUi.svg">
  <defs
     id="defs2">
    <filter
       inkscape:collect="always"
       style="color-interpolation-filters:sRGB"
       id="filter962"
       x="-0.06"
       width="1.12"
       y="-0.06"
       height="1.12">
      <feGaussianBlur
         inkscape:collect="always"
         stdDeviation="0.15598245"
         id="feGaussianBlur964" />
    </filter>
  </defs>
  <sodipodi:namedview
     id="base"
     pagecolor="#ffffff"
     bordercolor="#666666"
     borderopacity="1.0"
     inkscape:pageopacity="0.0"
     inkscape:pageshadow="2"
     inkscape:zoom="1"
     inkscape:cx="136.92397"
     inkscape:cy="-299.86597"
     inkscape:document-units="mm"
     inkscape:current-layer="layer1"
     showgrid="false"
     units="in"
     inkscape:object-nodes="false"
     inkscape:window-width="838"
     inkscape:window-height="718"
     inkscape:window-x="0"
     inkscape:window-y="1"
     inkscape:window-maximized="0" />
  <metadata
     id="metadata5">
    <rdf:RDF>
      <cc:Work
         rdf:about="">
        <dc:format>image/svg+xml</dc:format>
        <dc:type
           rdf:resource="http://purl.org/dc/dcmitype/StillImage" />
        <dc:title />
      </cc:Work>
    </rdf:RDF>
  </metadata>
  <g
     inkscape:label="Layer 1"
     inkscape:groupmode="layer"
     id="layer1"
     transform="translate(0,-169.99998)">
    <rect
       style="opacity:1;fill:#090b39;fill-opacity:0.8436019;stroke:none;stroke-width:1.0433147;stroke-miterlimit:4;stroke-dasharray:none;stroke-opacity:1"
       id="rect4504"
       width="75.630188"
       height="126.61435"
       x="0.30633342"
       y="319.1268"
       inkscape:export-xdpi="95.300003"
       inkscape:export-ydpi="95.300003" />
    <rect
       style="opacity:1;fill:#9090c8;fill-opacity:1;stroke:none;stroke-width:2.05688334;stroke-miterlimit:4;stroke-dasharray:none;stroke-opacity:1"
       id="rect4506"
       width="14.699824"
       height="71.360962"
       x="9.3544331"
       y="369.18958"
       ry="1.7372519" />
    <rect
       ry="1.7372519"
       y="369.19495"
       x="30.735994"
       height="71.360962"
       width="14.699824"
       id="rect4508"
       style="opacity:1;fill:#4c4cc5;fill-opacity:1;stroke:#d91a7b;stroke-width:0.557;stroke-miterlimit:4;stroke-dasharray:none;stroke-opacity:1"
       inkscape:export-xdpi="95.300003"
       inkscape:export-ydpi="95.300003" />
    <rect
       style="opacity:1;fill:#9090c8;fill-opacity:1;stroke:none;stroke-width:2.05688334;stroke-miterlimit:4;stroke-dasharray:none;stroke-opacity:1"
       id="rect4510"
       width="14.699824"
       height="71.360962"
       x="51.850288"
       y="369.19495"
       ry="1.7372519"
       inkscape:export-xdpi="95.300003"
       inkscape:export-ydpi="95.300003" />
    <g
       id="g4579">
      <g
         id="g4546">
        <rect
           rx="1.3363476"
           style="opacity:1;fill:#d91a7b;fill-opacity:1;stroke:none;stroke-width:0.81473035;stroke-miterlimit:4;stroke-dasharray:none;stroke-opacity:1"
           id="rect4514"
           width="12.828938"
           height="12.828936"
           x="10.166986"
           y="412.6377"
           ry="2.4504731" />
      </g>
      <text
         xml:space="preserve"
         style="font-style:normal;font-weight:normal;font-size:10.58333302px;line-height:1.25;font-family:sans-serif;letter-spacing:0px;word-spacing:0px;fill:#ffffff;fill-opacity:1;stroke:none;stroke-width:0.26458332"
         x="12.964583"
         y="422.67706"
         id="text4528"><tspan
           sodipodi:role="line"
           id="tspan4526"
           x="12.964583"
           y="422.67706"
           style="fill:#ffffff;stroke-width:0.26458332">2</tspan></text>
    </g>
    <g
       id="g4573">
      <g
         id="g4549">
        <rect
           ry="2.4504731"
           y="398.87943"
           x="10.166986"
           height="12.828936"
           width="12.828938"
           id="rect4516"
           style="opacity:1;fill:#d91a7b;fill-opacity:1;stroke:none;stroke-width:0.81473035;stroke-miterlimit:4;stroke-dasharray:none;stroke-opacity:1"
           rx="1.3363476" />
      </g>
      <text
         id="text4532"
         y="408.9187"
         x="12.964583"
         style="font-style:normal;font-weight:normal;font-size:10.58333302px;line-height:1.25;font-family:sans-serif;letter-spacing:0px;word-spacing:0px;fill:#ffffff;fill-opacity:1;stroke:none;stroke-width:0.26458332"
         xml:space="preserve"><tspan
           style="fill:#ffffff;stroke-width:0.26458332"
           y="408.9187"
           x="12.964583"
           id="tspan4530"
           sodipodi:role="line">3</tspan></text>
    </g>
    <g
       id="g4900">
      <rect
         rx="1.3363476"
         style="opacity:1;fill:#d91a7b;fill-opacity:1;stroke:none;stroke-width:0.81473035;stroke-miterlimit:4;stroke-dasharray:none;stroke-opacity:1"
         id="rect4520"
         width="12.828938"
         height="12.828936"
         x="27.629486"
         y="340.67093"
         ry="2.4504731" />
      <text
         id="text4540"
         y="351.23965"
         x="30.427084"
         style="font-style:normal;font-weight:normal;font-size:10.58333302px;line-height:1.25;font-family:sans-serif;letter-spacing:0px;word-spacing:0px;fill:#ffffff;fill-opacity:1;stroke:none;stroke-width:0.26458332;"
         xml:space="preserve"><tspan
           style="fill:#ffffff;stroke-width:0.26458332"
           y="351.23965"
           x="30.427084"
           id="tspan4538"
           sodipodi:role="line">5</tspan></text>
      <path
         inkscape:connector-curvature="0"
         id="path4880"
         d="m 35.640391,343.49151 4.677216,4.58367"
         style="fill:none;stroke:#b01363;stroke-width:0.1;stroke-linecap:butt;stroke-linejoin:miter;stroke-opacity:1;stroke-miterlimit:4;stroke-dasharray:none" />
      <path
         style="fill:none;stroke:#b01363;stroke-width:0.1;stroke-linecap:butt;stroke-linejoin:miter;stroke-opacity:1;stroke-miterlimit:4;stroke-dasharray:none"
         d="m 31.291979,351.11585 2.385365,2.33766"
         id="path4882"
         inkscape:connector-curvature="0" />
      <path
         transform="matrix(0.26458333,0,0,0.26458333,0,169.99998)"
         inkscape:connector-curvature="0"
         id="path4884"
         d="m 123.43933,689.07966 c -4.17868,-4.09274 -4.28936,-4.23883 -3.0052,-3.96665 0.73329,0.15541 3.1629,0.28258 5.39912,0.28258 3.81053,0 4.19908,-0.0666 6.18715,-1.06066 2.66253,-1.33129 4.20918,-3.29448 4.78655,-6.07564 1.13931,-5.48803 -1.35252,-10.40399 -6.06745,-11.97004 -1.80771,-0.60042 -5.60039,-0.8034 -6.93918,-0.37138 -0.78741,0.2541 -0.79549,0.22235 -0.79549,-3.12588 v -3.38258 h 6.0104 6.01041 v -1.49096 -1.49096 l 6.98268,6.89381 c 3.84047,3.7916 7.83159,7.66366 8.86916,8.60456 l 1.88647,1.71075 -0.13365,7.2937 c -0.15007,8.18955 -0.43765,9.43232 -2.62753,11.35507 l -1.21315,1.06516 -10.50591,-0.0108 -10.50591,-0.0108 z"
         style="opacity:1;fill:#b01664;fill-opacity:1;stroke:none;stroke-width:0.13362648;stroke-miterlimit:4;stroke-dasharray:none;stroke-opacity:1" />
    </g>
    <g
       id="g4928">
      <g
         id="g4567">
        <g
           id="g4552">
          <rect
             ry="2.4504731"
             y="385.12115"
             x="10.166986"
             height="12.828936"
             width="12.828938"
             id="rect4518"
             style="opacity:1;fill:#d91a7b;fill-opacity:1;stroke:none;stroke-width:0.81473035;stroke-miterlimit:4;stroke-dasharray:none;stroke-opacity:1"
             rx="1.3363476" />
        </g>
        <text
           id="text4536"
           y="395.16043"
           x="12.964583"
           style="font-style:normal;font-weight:normal;font-size:10.58333302px;line-height:1.25;font-family:sans-serif;letter-spacing:0px;word-spacing:0px;fill:#ffffff;fill-opacity:1;stroke:none;stroke-width:0.26458332"
           xml:space="preserve"><tspan
             style="fill:#ffffff;stroke-width:0.26458332"
             y="395.16043"
             x="12.964583"
             id="tspan4534"
             sodipodi:role="line">4</tspan></text>
      </g>
      <path
         inkscape:connector-curvature="0"
         id="path4920"
         d="m 18.234679,397.85344 c 0.05703,-0.0687 -0.414242,-0.55951 -2.172261,-2.26231 -1.234797,-1.19601 -2.245086,-2.18477 -2.245086,-2.19724 0,-0.0125 0.699492,-0.0227 1.554427,-0.0227 h 1.554427 v 0.89297 0.89296 h 0.562239 0.56224 v -0.89296 -0.89297 h 0.529167 0.529166 v -0.46302 -0.46302 h -0.529166 -0.529167 v -2.28931 -2.28931 l 0.644922,0.60268 c 0.354707,0.33147 1.418828,1.35891 2.364713,2.2832 1.281969,1.2527 1.740841,1.66318 1.802474,1.61238 0.133499,-0.11001 0.116635,3.62638 -0.01871,4.14601 -0.136168,0.52279 -0.408097,1.00581 -0.685374,1.21743 l -0.22792,0.17395 -1.884457,0.0195 c -1.559715,0.0161 -1.871907,0.004 -1.811631,-0.0683 z"
         style="opacity:1;fill:#b01664;fill-opacity:1;stroke:#ff389c;stroke-width:0.08925;stroke-miterlimit:4;stroke-dasharray:none;stroke-opacity:1" />
    </g>
    <path
       style="opacity:1;fill:#b01664;fill-opacity:1;stroke:#ff389c;stroke-width:0.08925;stroke-miterlimit:4;stroke-dasharray:none;stroke-opacity:1"
       d="m 15.27254,410.23792 c -0.818555,-0.79754 -1.468308,-1.45111 -1.443895,-1.45239 0.02441,-10e-4 0.307186,0.062 0.628386,0.14065 0.692299,0.16949 1.842489,0.19894 2.403009,0.0615 0.586701,-0.14384 1.043152,-0.40086 1.394367,-0.78514 0.383067,-0.41914 0.533871,-0.85016 0.531541,-1.51923 -0.0029,-0.82619 -0.329986,-1.39141 -0.998623,-1.72553 l -0.390768,-0.19527 0.374579,-0.22209 c 0.704303,-0.41758 1.002421,-1.13967 0.796171,-1.92845 -0.05901,-0.22567 -0.09865,-0.41927 -0.08809,-0.43023 0.01056,-0.011 1.006892,0.94094 2.214072,2.11534 l 2.194874,2.13527 -0.0226,1.88648 c -0.02127,1.77505 -0.03142,1.90853 -0.171941,2.25986 -0.08214,0.20536 -0.234207,0.49054 -0.337938,0.63374 -0.349194,0.48205 -0.345708,0.48151 -3.124388,0.47834 l -2.470472,-0.003 z"
       id="path4930"
       inkscape:connector-curvature="0" />
    <path
       style="opacity:1;fill:#b01664;fill-opacity:1;stroke:#ff389c;stroke-width:0.08925;stroke-miterlimit:4;stroke-dasharray:none;stroke-opacity:1"
       d="m 15.140249,424.12747 -1.422136,-1.38423 2.497005,-0.002 2.497006,-0.002 v -0.46195 -0.46193 l -1.76087,-0.0176 -1.76087,-0.0176 1.361374,-1.4064 c 1.424909,-1.47205 1.661186,-1.76128 1.946335,-2.38254 0.142355,-0.31015 0.173227,-0.47351 0.171479,-0.90741 -0.0014,-0.3439 -0.04093,-0.61956 -0.11295,-0.78737 -0.06095,-0.14201 -0.09896,-0.27006 -0.08448,-0.28454 0.01449,-0.0145 1.015814,0.93514 2.225172,2.11028 1.209356,1.17515 2.226856,2.1285 2.261111,2.11857 0.03829,-0.0111 0.05353,0.71505 0.03955,1.88516 -0.02141,1.7923 -0.03143,1.92497 -0.172068,2.27659 -0.08214,0.20536 -0.234207,0.49054 -0.337937,0.63374 -0.351428,0.48513 -0.326835,0.48156 -3.289753,0.47796 l -2.635837,-0.003 z"
       id="path4932"
       inkscape:connector-curvature="0" />
    <g
       id="g854"
       inkscape:export-xdpi="95.300003"
       inkscape:export-ydpi="95.300003">
      <g
         id="g4585">
        <g
           id="g4543">
          <rect
             rx="1.3363476"
             style="opacity:1;fill:#d91a7b;fill-opacity:1;stroke:none;stroke-width:0.81473035;stroke-miterlimit:4;stroke-dasharray:none;stroke-opacity:1"
             id="rect4512"
             width="12.828938"
             height="12.828936"
             x="10.166986"
             y="426.39597"
             ry="2.4504731" />
        </g>
        <text
           xml:space="preserve"
           style="font-style:normal;font-weight:normal;font-size:10.58333302px;line-height:1.25;font-family:sans-serif;letter-spacing:0px;word-spacing:0px;fill:#ffffff;fill-opacity:1;stroke:none;stroke-width:0.26458332"
           x="12.964583"
           y="436.43539"
           id="text4524"><tspan
             sodipodi:role="line"
             id="tspan4522"
             x="12.964583"
             y="436.43539"
             style="fill:#ffffff;stroke-width:0.26458332">1</tspan></text>
      </g>
      <path
         transform="matrix(0.26458333,0,0,0.26458333,0,169.99998)"
         inkscape:connector-curvature="0"
         id="path4934"
         d="m 59.222987,1012.2299 -5.375,-5.2327 h 8.573923 8.573922 l -0.07392,-1.6875 -0.07392,-1.6875 -3.1875,-0.07 -3.1875,-0.07 v -12.77265 -12.7727 l 8.279708,8.09267 c 4.55384,4.45096 9.555437,9.27391 11.11466,10.71766 l 2.834955,2.625 -0.06062,6.25002 c -0.05641,5.8161 -0.09965,6.348 -0.622785,7.6612 -0.75958,1.9067 -1.806705,3.2933 -2.867147,3.7965 -0.771398,0.3661 -1.964123,0.4157 -9.716555,0.4047 l -8.837218,-0.013 z"
         style="opacity:1;fill:#b01664;fill-opacity:1;stroke:#ff389c;stroke-width:0.33732283;stroke-miterlimit:4;stroke-dasharray:none;stroke-opacity:1" />
    </g>
    <g
       id="g970"
       inkscape:export-xdpi="95.300003"
       inkscape:export-ydpi="95.300003">
      <circle
         r="3.1196489"
         cy="362.8812"
         cx="59.002083"
         id="path856"
         style="opacity:0.63999999;fill:none;fill-opacity:0.70422537;stroke:#ffffff;stroke-width:0.46770173;stroke-miterlimit:4;stroke-dasharray:none;stroke-opacity:0.9953052;filter:url(#filter962)" />
      <circle
         r="1.0583333"
         cy="362.88123"
         cx="59.002087"
         id="path966"
         style="opacity:1;fill:#ffffff;fill-opacity:1;stroke:none;stroke-width:0.35699999;stroke-miterlimit:4;stroke-dasharray:none;stroke-opacity:0.9953052" />
    </g>
  </g>
</svg>
