<?xml version="1.0" encoding="UTF-8" standalone="no"?>
<!-- Created with Inkscape (http://www.inkscape.org/) -->

<svg
   xmlns:dc="http://purl.org/dc/elements/1.1/"
   xmlns:cc="http://creativecommons.org/ns#"
   xmlns:rdf="http://www.w3.org/1999/02/22-rdf-syntax-ns#"
   xmlns:svg="http://www.w3.org/2000/svg"
   xmlns="http://www.w3.org/2000/svg"
   xmlns:sodipodi="http://sodipodi.sourceforge.net/DTD/sodipodi-0.dtd"
   xmlns:inkscape="http://www.inkscape.org/namespaces/inkscape"
   width="210mm"
   height="297mm"
   viewBox="0 0 210 297"
   version="1.1"
   id="svg8"
   inkscape:version="0.92.2 5c3e80d, 2017-08-06"
   sodipodi:docname="drawing.svg">
  <defs
     id="defs2" />
  <sodipodi:namedview
     id="base"
     pagecolor="#ffffff"
     bordercolor="#666666"
     borderopacity="1.0"
     inkscape:pageopacity="0.0"
     inkscape:pageshadow="2"
     inkscape:zoom="0.49497475"
     inkscape:cx="193.67059"
     inkscape:cy="646.19429"
     inkscape:document-units="mm"
     inkscape:current-layer="layer1"
     showgrid="false"
     inkscape:window-width="1440"
     inkscape:window-height="795"
     inkscape:window-x="0"
     inkscape:window-y="1"
     inkscape:window-maximized="1" />
  <metadata
     id="metadata5">
    <rdf:RDF>
      <cc:Work
         rdf:about="">
        <dc:format>image/svg+xml</dc:format>
        <dc:type
           rdf:resource="http://purl.org/dc/dcmitype/StillImage" />
        <dc:title />
      </cc:Work>
    </rdf:RDF>
  </metadata>
  <g
     inkscape:label="Layer 1"
     inkscape:groupmode="layer"
     id="layer1">
    <g
       id="g943"
       inkscape:export-filename="/Users/gauravgautam/logo.png"
       inkscape:export-xdpi="96"
       inkscape:export-ydpi="96">
      <g
         transform="matrix(0.64222201,0,0,0.64222201,-22.345084,-38.316976)"
         id="g827">
        <path
           style="fill:none;stroke:#000000;stroke-width:1;stroke-linecap:butt;stroke-linejoin:miter;stroke-miterlimit:4;stroke-dasharray:none;stroke-opacity:1"
           d="M 41.577381,100.45238 C 105.83333,58.875001 137.58333,76.261904 170.84524,97.42857 c 33.2619,21.16667 72.57142,-7.559524 72.57142,-7.559524"
           id="path815"
           inkscape:connector-curvature="0" />
        <path
           inkscape:connector-curvature="0"
           id="path817"
           d="m 41.577381,124.64286 c 64.255949,-41.577383 96.005949,-24.19048 129.267859,-3.02381 33.2619,21.16667 72.57142,-7.55953 72.57142,-7.55953"
           style="fill:none;stroke:#000000;stroke-width:1;stroke-linecap:butt;stroke-linejoin:miter;stroke-miterlimit:4;stroke-dasharray:none;stroke-opacity:1" />
        <path
           style="fill:none;stroke:#000000;stroke-width:1;stroke-linecap:butt;stroke-linejoin:miter;stroke-miterlimit:4;stroke-dasharray:none;stroke-opacity:1"
           d="m 41.577381,100.45238 v 24.19048"
           id="path819"
           inkscape:connector-curvature="0" />
        <path
           style="fill:none;stroke:#000000;stroke-width:1;stroke-linecap:butt;stroke-linejoin:miter;stroke-miterlimit:4;stroke-dasharray:none;stroke-opacity:1"
           d="M 243.41666,89.869046 V 114.05952"
           id="path821"
           inkscape:connector-curvature="0" />
      </g>
      <g
         id="g837"
         transform="matrix(0.64222201,0,0,0.64222201,-22.345084,-17.150308)">
        <path
           inkscape:connector-curvature="0"
           id="path829"
           d="M 41.577381,100.45238 C 105.83333,58.875001 137.58333,76.261904 170.84524,97.42857 c 33.2619,21.16667 72.57142,-7.559524 72.57142,-7.559524"
           style="fill:none;stroke:#000000;stroke-width:1;stroke-linecap:butt;stroke-linejoin:miter;stroke-miterlimit:4;stroke-dasharray:none;stroke-opacity:1" />
        <path
           style="fill:none;stroke:#000000;stroke-width:1;stroke-linecap:butt;stroke-linejoin:miter;stroke-miterlimit:4;stroke-dasharray:none;stroke-opacity:1"
           d="m 41.577381,124.64286 c 64.255949,-41.577383 96.005949,-24.19048 129.267859,-3.02381 33.2619,21.16667 72.57142,-7.55953 72.57142,-7.55953"
           id="path831"
           inkscape:connector-curvature="0" />
        <path
           inkscape:connector-curvature="0"
           id="path833"
           d="m 41.577381,100.45238 v 24.19048"
           style="fill:none;stroke:#000000;stroke-width:1;stroke-linecap:butt;stroke-linejoin:miter;stroke-miterlimit:4;stroke-dasharray:none;stroke-opacity:1" />
        <path
           inkscape:connector-curvature="0"
           id="path835"
           d="M 243.41666,89.869046 V 114.05952"
           style="fill:none;stroke:#000000;stroke-width:1;stroke-linecap:butt;stroke-linejoin:miter;stroke-miterlimit:4;stroke-dasharray:none;stroke-opacity:1" />
      </g>
      <g
         transform="matrix(0.64222201,0,0,0.64222201,-22.345084,4.0163591)"
         id="g847">
        <path
           style="fill:none;stroke:#000000;stroke-width:1;stroke-linecap:butt;stroke-linejoin:miter;stroke-miterlimit:4;stroke-dasharray:none;stroke-opacity:1"
           d="M 41.577381,100.45238 C 105.83333,58.875001 137.58333,76.261904 170.84524,97.42857 c 33.2619,21.16667 72.57142,-7.559524 72.57142,-7.559524"
           id="path839"
           inkscape:connector-curvature="0" />
        <path
           inkscape:connector-curvature="0"
           id="path841"
           d="m 41.577381,124.64286 c 64.255949,-41.577383 96.005949,-24.19048 129.267859,-3.02381 33.2619,21.16667 72.57142,-7.55953 72.57142,-7.55953"
           style="fill:none;stroke:#000000;stroke-width:1;stroke-linecap:butt;stroke-linejoin:miter;stroke-miterlimit:4;stroke-dasharray:none;stroke-opacity:1" />
        <path
           style="fill:none;stroke:#000000;stroke-width:1;stroke-linecap:butt;stroke-linejoin:miter;stroke-miterlimit:4;stroke-dasharray:none;stroke-opacity:1"
           d="m 41.577381,100.45238 v 24.19048"
           id="path843"
           inkscape:connector-curvature="0" />
        <path
           style="fill:none;stroke:#000000;stroke-width:1;stroke-linecap:butt;stroke-linejoin:miter;stroke-miterlimit:4;stroke-dasharray:none;stroke-opacity:1"
           d="M 243.41666,89.869046 V 114.05952"
           id="path845"
           inkscape:connector-curvature="0" />
      </g>
      <flowRoot
         transform="matrix(0.26458333,0,0,0.26458333,10.583333,3.0238095)"
         style="font-style:normal;font-weight:normal;font-size:64px;line-height:1.25;font-family:sans-serif;letter-spacing:0px;word-spacing:0px;fill:#2c97de;fill-opacity:1;stroke:#778cff;stroke-opacity:1;"
         id="flowRoot849"
         xml:space="preserve"><flowRegion
           style="font-size:64px;fill:#2c97de;fill-opacity:1;stroke:#778cff;stroke-opacity:1;"
           id="flowRegion851"><rect
             style="font-size:64px;fill:#2c97de;fill-opacity:1;stroke:#778cff;stroke-opacity:1;"
             y="317.72504"
             x="16.466742"
             height="190.50894"
             width="503.53326"
             id="rect853" /></flowRegion><flowPara
           id="flowPara855">TARANG</flowPara></flowRoot>      <path
         inkscape:connector-curvature="0"
         id="path857"
         d="M 97.014746,43.286542 C 93.678548,42.441095 89.585346,40.424629 84.129175,36.938624 77.515349,32.712982 68.111078,28.293316 62.317007,26.687698 47.615546,22.613713 29.067828,26.275627 11.036905,36.812029 L 5.3672618,40.125097 5.1456687,34.028417 C 5.0237924,30.675244 5.0790541,27.527869 5.2684724,27.034252 5.7818059,25.696526 16.937975,19.352636 24.066029,16.345132 36.706362,11.011857 49.483364,9.457094 60.102053,11.960105 c 5.729277,1.350491 15.697452,5.897597 23.25528,10.608185 8.55237,5.330458 11.876709,6.534043 19.200657,6.951635 8.53634,0.486719 15.90313,-1.149903 24.42315,-5.425904 l 6.52005,-3.272256 v 6.923491 6.923489 l -5.10268,2.739234 c -2.80647,1.506577 -7.31384,3.470616 -10.01637,4.36453 -5.56846,1.841875 -16.90416,2.64509 -21.367394,1.514033 z"
         style="fill:#2c97de;fill-opacity:0.48627451;stroke:none;stroke-width:0;stroke-miterlimit:4;stroke-dasharray:none;stroke-opacity:1" />
      <path
         inkscape:connector-curvature="0"
         id="path859"
         d="M 97.014746,64.453208 C 93.678548,63.607761 89.585346,61.591295 84.129175,58.105291 77.515349,53.879649 68.111078,49.459983 62.317007,47.854364 47.615546,43.780379 29.067828,47.442294 11.036905,57.978695 L 5.3672618,61.291763 5.1456687,55.195083 C 5.0237924,51.84191 5.0790541,48.694535 5.2684724,48.200918 5.7818059,46.863193 16.937975,40.519302 24.066029,37.511799 c 12.640333,-5.333275 25.417335,-6.888038 36.036024,-4.385027 5.729277,1.350489 15.697452,5.897597 23.25528,10.608186 8.55237,5.330457 11.876709,6.534041 19.200657,6.951633 8.53634,0.48672 15.90313,-1.149903 24.42315,-5.425903 l 6.52005,-3.272258 v 6.923492 6.92349 l -5.10268,2.739234 c -2.80647,1.506577 -7.31384,3.470616 -10.01637,4.364529 -5.56846,1.841876 -16.90416,2.64509 -21.367394,1.514033 z"
         style="fill:#2c97de;fill-opacity:0.48627451;stroke:none;stroke-width:0;stroke-miterlimit:4;stroke-dasharray:none;stroke-opacity:1" />
      <path
         inkscape:connector-curvature="0"
         id="path861"
         d="M 97.014746,85.619875 C 93.678548,84.774428 89.585346,82.757961 84.129175,79.271957 77.515349,75.046315 68.111078,70.626649 62.317007,69.02103 47.615546,64.947045 29.067828,68.60896 11.036905,79.145362 L 5.3672618,82.458429 5.1456687,76.361749 C 5.0237924,73.008576 5.0790541,69.861202 5.2684724,69.367584 5.7818059,68.029859 16.937975,61.685968 24.066029,58.678465 36.706362,53.34519 49.483364,51.790427 60.102053,54.293439 c 5.729277,1.350488 15.697452,5.897596 23.25528,10.608185 8.55237,5.330457 11.876709,6.534042 19.200657,6.951633 8.53634,0.48672 15.90313,-1.149903 24.42315,-5.425903 l 6.52005,-3.272258 v 6.923493 6.923489 l -5.10268,2.739234 c -2.80647,1.506577 -7.31384,3.470616 -10.01637,4.36453 -5.56846,1.841875 -16.90416,2.645089 -21.367394,1.514033 z"
         style="fill:#2c97de;fill-opacity:0.48627451;stroke:none;stroke-width:0;stroke-miterlimit:4;stroke-dasharray:none;stroke-opacity:1" />
    </g>
  </g>
</svg>
